<?xml version="1.0" standalone="no"?>
<!DOCTYPE svg PUBLIC "-//W3C//DTD SVG 20010904//EN"
 "http://www.w3.org/TR/2001/REC-SVG-20010904/DTD/svg10.dtd">
<svg version="1.0" xmlns="http://www.w3.org/2000/svg"
 width="150.000000pt" height="150.000000pt" viewBox="0 0 150.000000 150.000000"
 preserveAspectRatio="xMidYMid meet">

<g transform="translate(0.000000,150.000000) scale(0.100000,-0.100000)"
fill="#000000" stroke="none">
<path d="M645 1489 c-373 -58 -639 -365 -638 -739 0 -133 20 -218 80 -340 39
-78 62 -110 133 -181 211 -213 499 -280 780 -180 113 40 184 85 275 176 145
145 216 315 218 520 1 221 -79 406 -241 556 -158 146 -399 221 -607 188z m320
-400 c111 -13 149 -31 183 -82 27 -40 27 -43 27 -211 0 -159 -2 -174 -22 -206
-32 -52 -87 -79 -176 -86 -41 -4 -79 -10 -84 -13 -5 -3 -35 -45 -67 -93 -38
-58 -64 -88 -76 -88 -12 0 -38 30 -76 87 -32 49 -63 91 -67 94 -5 3 -43 9 -84
13 -88 7 -137 31 -173 83 -24 35 -25 42 -25 208 0 169 0 172 27 212 33 50 73
69 168 81 106 13 339 14 445 1z"/>
<path d="M546 871 c-4 -5 -3 -16 0 -25 5 -14 32 -16 204 -16 172 0 199 2 204
16 3 9 4 20 0 25 -7 12 -401 12 -408 0z"/>
<path d="M544 745 c-12 -29 7 -35 116 -35 109 0 124 5 112 38 -7 19 -221 17
-228 -3z"/>
</g>
</svg>
