<?xml version="1.0" standalone="no"?>
<!DOCTYPE svg PUBLIC "-//W3C//DTD SVG 20010904//EN"
 "http://www.w3.org/TR/2001/REC-SVG-20010904/DTD/svg10.dtd">
<svg version="1.0" xmlns="http://www.w3.org/2000/svg"
 width="488.000000pt" height="511.000000pt" viewBox="0 0 488.000000 511.000000"
 preserveAspectRatio="xMidYMid meet">

<g transform="translate(0.000000,511.000000) scale(0.100000,-0.100000)"
fill="#000000" stroke="none">
<path d="M2300 4864 c-596 -52 -1085 -267 -1493 -654 -407 -387 -652 -875
-727 -1450 -19 -143 -14 -446 9 -597 44 -284 111 -495 238 -748 172 -343 463
-672 783 -885 36 -24 76 -51 90 -60 106 -71 413 -210 542 -245 313 -86 404
-99 693 -99 232 0 293 5 489 45 611 126 1154 497 1509 1034 70 107 192 351
242 488 41 111 87 289 111 427 22 127 31 507 14 638 -66 538 -289 1003 -665
1391 -374 385 -876 634 -1410 700 -92 11 -359 21 -425 15z m525 -53 c139 -25
179 -34 285 -66 744 -224 1330 -797 1569 -1535 81 -250 105 -418 105 -720 0
-276 -14 -389 -79 -623 -177 -645 -635 -1194 -1240 -1487 -492 -239 -1039
-299 -1570 -173 -485 115 -966 414 -1264 787 -31 39 -59 73 -62 76 -29 25
-176 267 -239 395 -123 249 -193 490 -226 771 -32 271 1 677 71 889 7 22 19
59 25 83 21 79 110 286 176 408 316 578 861 999 1504 1159 82 20 217 44 340
59 19 2 139 3 265 1 174 -3 257 -9 340 -24z"/>
<path d="M2145 4716 c-203 -30 -430 -92 -575 -159 -36 -16 -84 -38 -108 -48
-192 -83 -507 -317 -669 -498 -336 -372 -534 -812 -583 -1290 -23 -228 -5
-518 45 -737 20 -91 79 -269 122 -369 271 -635 834 -1120 1498 -1290 223 -57
325 -70 565 -69 223 0 290 7 485 50 898 198 1584 930 1732 1849 25 156 25 537
-1 685 -34 198 -84 368 -157 537 -117 269 -270 494 -474 698 -326 327 -747
545 -1220 631 -121 22 -533 28 -660 10z m658 -35 c458 -81 853 -282 1184 -604
409 -399 642 -917 669 -1492 36 -764 -343 -1506 -991 -1940 -219 -146 -503
-266 -760 -321 -212 -45 -534 -58 -755 -29 -867 112 -1599 741 -1840 1582
-109 382 -118 746 -26 1134 68 287 179 527 369 794 82 114 348 387 442 452
170 118 229 155 330 206 276 140 491 202 835 241 95 11 430 -3 543 -23z"/>
<path d="M2290 4370 l0 -150 90 0 c89 0 90 0 90 25 0 24 -3 25 -55 25 l-55 0
0 35 c0 37 3 39 63 36 35 -3 37 -1 37 29 0 32 0 32 -47 28 l-48 -3 0 35 0 35
53 3 c48 3 52 5 52 28 0 24 -1 24 -90 24 l-90 0 0 -150z"/>
<path d="M2576 4498 c-12 -60 -33 -274 -27 -280 3 -3 42 -9 86 -13 66 -5 86
-3 115 12 51 27 80 76 80 136 0 88 -52 138 -156 152 -27 3 -59 8 -71 11 -17 3
-24 -1 -27 -18z m144 -63 c35 -18 48 -67 30 -120 -13 -40 -45 -58 -94 -53 -28
3 -31 6 -30 38 1 19 4 61 8 93 7 52 10 57 32 57 14 0 38 -7 54 -15z"/>
<path d="M2048 4483 c-13 -3 -17 -21 -20 -103 -2 -68 -7 -103 -17 -112 -8 -7
-11 -8 -8 -2 4 6 -14 47 -38 90 -25 43 -45 83 -45 88 0 10 -61 -1 -74 -14 -8
-8 9 -289 19 -298 1 -2 15 0 30 4 l28 7 -7 100 c-6 87 -5 99 7 88 8 -6 20 -25
27 -41 7 -16 16 -28 20 -25 4 3 7 -1 7 -8 -1 -6 7 -29 18 -49 13 -27 25 -38
41 -38 26 0 32 26 35 143 2 63 4 75 15 66 8 -6 14 -16 14 -22 0 -5 12 -43 28
-83 24 -67 30 -74 54 -74 15 0 29 4 32 9 3 4 -19 68 -48 142 -47 118 -56 134
-77 136 -13 0 -31 -1 -41 -4z"/>
<path d="M1625 4349 c-33 -16 -65 -29 -72 -29 -6 0 -14 -4 -17 -9 -6 -9 97
-258 112 -273 9 -9 162 55 162 67 0 4 -5 15 -10 25 -10 19 -11 19 -57 -1 -45
-19 -48 -19 -60 -3 -22 30 -14 48 27 66 39 16 48 31 32 56 -7 10 -18 8 -53 -7
l-44 -20 -12 22 c-20 35 -15 44 32 64 45 18 57 41 33 60 -9 7 -31 2 -73 -18z"/>
<path d="M3123 4349 c-129 -82 -92 -266 58 -294 34 -6 37 -5 48 26 6 17 11 33
11 33 0 1 -16 2 -35 2 -82 0 -117 103 -56 165 39 39 82 39 121 0 l29 -28 10
30 c15 42 15 41 -28 65 -50 28 -115 29 -158 1z"/>
<path d="M3367 4155 c-37 -58 -65 -110 -62 -115 4 -6 1 -9 -6 -8 -25 6 -19
-28 8 -44 l28 -16 34 53 34 54 36 -20 c79 -45 78 -42 43 -99 -18 -28 -32 -54
-32 -58 0 -4 12 -15 27 -24 l28 -17 77 119 c43 65 78 125 78 133 0 12 -48 43
-55 35 -1 -2 -14 -22 -29 -45 -14 -24 -32 -43 -40 -43 -15 0 -96 57 -96 68 0
4 7 18 16 30 8 12 12 27 8 34 -4 7 -3 8 4 4 6 -3 16 2 21 13 9 15 6 22 -14 35
-13 9 -28 16 -32 16 -4 0 -39 -48 -76 -105z"/>
<path d="M1350 4204 c-30 -19 -61 -39 -69 -44 -12 -6 -7 -19 24 -68 22 -33 42
-59 46 -57 3 2 6 -2 6 -10 0 -18 65 -125 76 -125 4 0 35 18 69 40 33 21 65 41
71 43 12 4 -9 47 -24 47 -6 0 -30 -11 -53 -25 l-43 -25 -12 27 c-13 29 -10 35
48 73 20 14 21 17 7 35 -15 20 -15 20 -57 -4 l-42 -23 -18 23 c-18 24 -18 24
5 45 19 17 22 25 13 35 -10 11 -9 11 6 0 24 -19 51 3 36 30 -14 26 -26 24 -89
-17z"/>
<path d="M1100 4001 c-37 -20 -130 -98 -130 -109 0 -9 32 -46 124 -143 l77
-80 43 38 c99 88 122 166 69 236 -32 41 -90 77 -124 77 -13 -1 -40 -9 -59 -19z
m106 -85 c23 -23 34 -43 34 -64 0 -31 -33 -82 -54 -82 -15 0 -126 114 -126
129 0 16 61 51 89 51 13 0 38 -15 57 -34z"/>
<path d="M2274 4010 c-110 -13 -298 -62 -418 -111 -184 -73 -366 -198 -513
-352 -109 -114 -183 -218 -256 -357 -96 -184 -144 -346 -168 -568 -36 -337 73
-729 285 -1022 179 -248 444 -445 737 -548 174 -61 273 -77 494 -77 226 0 306
12 484 71 439 148 789 485 952 921 77 202 111 459 89 658 -42 384 -195 702
-461 962 -41 39 -87 82 -104 96 -36 29 -181 127 -189 127 -3 0 -27 13 -53 28
-227 132 -595 204 -879 172z m410 -36 c534 -85 997 -475 1173 -989 56 -163 74
-262 80 -445 4 -141 2 -184 -17 -294 -102 -599 -553 -1080 -1140 -1215 -333
-76 -658 -43 -968 100 -409 188 -719 560 -826 991 -35 137 -45 227 -46 380 -1
715 523 1339 1235 1468 131 24 371 26 509 4z"/>
<path d="M2300 3859 c-505 -55 -947 -389 -1134 -857 -19 -48 -47 -134 -63
-192 -26 -99 -28 -117 -28 -315 1 -196 2 -217 28 -315 71 -275 178 -465 371
-655 125 -124 217 -191 362 -263 378 -189 835 -188 1218 4 126 63 238 146 352
259 172 170 280 349 348 575 43 144 56 237 56 399 0 601 -394 1130 -972 1305
-178 54 -370 73 -538 55z m18 -689 c8 -4 31 -2 53 4 28 7 51 7 82 -1 23 -6 69
-9 102 -6 43 4 71 1 98 -11 34 -14 42 -14 67 -1 52 27 138 10 153 -29 3 -8
-29 -98 -72 -199 -89 -212 -92 -197 37 -197 72 0 89 -10 52 -30 -44 -24 -21
-32 72 -24 87 6 91 6 83 -12 -24 -60 -27 -58 78 -50 79 5 97 4 97 -7 0 -8 -9
-22 -20 -32 -11 -10 -20 -25 -20 -33 0 -12 16 -13 100 -7 55 4 100 4 100 -1 0
-4 -7 -16 -17 -26 -9 -10 -13 -21 -10 -25 4 -3 46 -2 93 3 87 10 106 6 79 -16
-8 -7 -15 -19 -15 -26 0 -21 54 -17 159 10 50 13 91 20 91 17 0 -4 -37 -43
-82 -87 -232 -228 -432 -352 -621 -384 -111 -20 -252 15 -364 90 l-31 21 -37
-60 c-20 -33 -60 -82 -89 -108 -30 -26 -63 -67 -75 -90 -12 -24 -25 -43 -30
-43 -5 0 -17 20 -27 45 -11 29 -28 52 -50 65 -44 28 -89 80 -119 140 l-25 50
-50 -38 c-201 -152 -456 -94 -795 182 -108 87 -251 223 -244 230 3 3 46 -3 95
-14 90 -20 164 -26 164 -13 0 3 -15 19 -32 34 l-33 28 37 1 c21 0 71 -7 113
-17 41 -9 78 -13 82 -10 3 4 -4 18 -17 32 -13 14 -20 28 -17 32 4 4 43 0 86
-8 108 -21 120 -14 80 43 -12 16 -19 31 -16 34 2 3 33 0 68 -6 35 -5 72 -10
82 -10 26 0 32 28 12 50 -10 11 -15 23 -12 27 4 3 54 0 113 -7 118 -14 147 -5
89 26 -19 10 -35 22 -35 25 0 4 41 13 90 20 50 6 90 13 90 14 0 2 -14 34 -31
72 -126 274 -133 298 -103 327 18 19 52 20 105 5 30 -10 45 -9 76 4 36 14 81
13 111 -3z"/>
<path d="M3668 3915 c-54 -57 -98 -108 -98 -113 0 -5 11 -17 24 -25 22 -15 25
-14 61 23 21 22 41 37 45 35 4 -3 0 -35 -8 -71 l-15 -68 29 -24 29 -25 6 34
c4 19 10 50 13 71 6 35 7 36 44 31 56 -8 97 29 97 87 0 38 -6 47 -57 96 -31
30 -60 54 -65 53 -4 0 -52 -47 -105 -104z m144 -2 c22 -20 23 -41 1 -65 -18
-20 -48 -24 -58 -8 -4 6 -10 8 -14 6 -17 -11 -8 41 11 61 26 27 35 28 60 6z"/>
<path d="M837 3740 c-26 -33 -50 -66 -52 -73 -3 -6 29 -39 71 -72 42 -33 94
-75 116 -93 l40 -32 54 67 c30 38 53 72 51 77 -2 5 -11 14 -20 20 -14 9 -23 4
-48 -27 -34 -41 -48 -45 -72 -19 -14 16 -13 20 14 56 22 30 26 42 18 53 -18
21 -35 15 -63 -22 -23 -30 -30 -34 -47 -24 -33 17 -33 36 0 77 29 38 30 40 12
56 -9 9 -19 16 -22 16 -2 0 -26 -27 -52 -60z"/>
<path d="M3890 3695 c-57 -47 -108 -89 -112 -93 -4 -4 3 -20 15 -35 l22 -28
60 48 c180 145 179 144 160 171 -9 12 -22 22 -28 22 -7 -1 -59 -39 -117 -85z"/>
<path d="M4060 3593 c-48 -18 -62 -66 -41 -139 11 -38 -2 -64 -33 -64 -31 0
-49 23 -51 68 -3 33 -6 37 -26 34 -13 -2 -28 -8 -33 -13 -15 -14 12 -85 45
-118 41 -42 104 -44 143 -5 29 30 31 45 15 110 -10 38 -9 48 3 61 23 22 56 1
63 -41 6 -28 10 -32 31 -28 28 5 31 29 9 72 -28 55 -79 80 -125 63z"/>
<path d="M703 3510 c-31 -19 -77 -88 -88 -133 -7 -25 -2 -28 124 -91 l130 -66
16 22 c8 13 15 26 15 30 0 4 -23 19 -50 33 -28 14 -48 30 -45 35 3 6 35 10 70
10 61 0 65 1 80 30 8 16 15 32 15 35 0 3 -30 5 -67 3 l-68 -3 -3 31 c-6 60
-78 96 -129 64z m72 -76 c10 -10 14 -25 11 -38 -3 -12 -6 -24 -6 -28 0 -13
-39 -9 -71 7 -29 15 -29 16 -14 45 18 34 53 40 80 14z"/>
<path d="M4226 3377 c-15 -11 -16 -17 -5 -40 8 -17 9 -31 3 -36 -5 -5 -52 -28
-104 -51 -52 -24 -97 -44 -99 -46 -7 -6 21 -64 30 -64 5 0 53 20 106 45 53 25
102 45 109 45 8 0 17 -12 20 -26 5 -20 11 -24 28 -20 11 3 24 6 29 6 13 0 7
18 -35 109 -24 50 -48 91 -54 91 -5 0 -18 -6 -28 -13z"/>
<path d="M489 3058 c-6 -24 -15 -53 -20 -66 -5 -13 -9 -33 -9 -45 0 -22 15
-27 266 -93 18 -5 23 3 43 77 23 84 20 104 -15 97 -12 -2 -23 -19 -32 -51 -12
-44 -15 -47 -40 -41 -37 9 -37 8 -25 61 9 36 8 50 0 55 -25 16 -37 6 -50 -39
-12 -42 -17 -48 -38 -45 -40 6 -44 18 -27 71 15 48 15 49 -6 55 -34 9 -35 8
-47 -36z"/>
<path d="M4330 3089 c-14 -6 -72 -24 -130 -41 -58 -16 -106 -31 -108 -32 -1
-2 3 -17 9 -34 12 -36 21 -38 81 -18 24 8 82 26 131 41 87 26 92 31 81 73 -7
24 -24 27 -64 11z"/>
<path d="M4140 2845 c0 -28 5 -33 32 -41 31 -9 33 -13 41 -69 8 -56 7 -60 -17
-78 -28 -20 -38 -77 -13 -77 6 1 71 31 142 68 l130 67 -1 47 c0 26 -2 50 -5
52 -2 2 -73 18 -157 34 l-152 29 0 -32z m228 -70 c23 -4 42 -10 42 -14 0 -11
-132 -71 -142 -65 -4 3 -8 26 -8 51 l0 45 33 -5 c17 -3 51 -9 75 -12z"/>
<path d="M428 2754 c-4 -38 0 -41 77 -46 l40 -3 -3 -45 c-6 -82 -7 -83 -73
-78 l-59 4 0 -36 0 -36 138 -12 c75 -7 143 -12 150 -12 18 0 16 67 -4 74 -9 3
-36 6 -60 6 l-45 0 3 63 3 62 68 -3 68 -3 -3 38 -3 38 -90 7 c-49 3 -115 9
-146 12 l-57 5 -4 -35z"/>
<path d="M4177 2504 c-4 -4 -7 -19 -7 -34 0 -26 3 -27 61 -34 34 -3 82 -6 105
-6 24 0 44 -3 43 -7 0 -5 -49 -37 -110 -73 -107 -63 -109 -65 -109 -101 l0
-36 78 -7 c42 -3 110 -9 150 -13 l72 -6 0 36 0 35 -100 7 c-55 4 -100 11 -100
16 0 5 4 9 10 9 5 0 54 29 108 64 93 60 99 66 100 98 l1 35 -117 7 c-64 4
-131 9 -147 12 -17 3 -34 2 -38 -2z"/>
<path d="M415 2400 c-5 -9 1 -110 11 -177 4 -27 9 -33 29 -33 14 0 25 6 26 13
1 6 2 23 2 37 2 25 4 25 120 34 l117 8 0 40 c0 37 -2 40 -22 35 -13 -3 -67 -9
-120 -12 l-97 -7 -6 36 c-6 29 -12 36 -31 36 -12 0 -25 -4 -29 -10z"/>
<path d="M653 1944 c-3 -9 1 -37 10 -62 10 -25 15 -47 13 -50 -3 -2 -26 10
-52 27 -56 36 -56 36 -78 12 -17 -19 -13 -50 8 -53 17 -2 48 -5 79 -7 38 -2
34 -16 -13 -42 -33 -19 -40 -28 -38 -49 2 -18 10 -26 27 -28 29 -5 43 9 56 55
15 52 29 51 46 -4 12 -39 20 -49 40 -51 32 -4 57 23 43 46 -6 9 -27 24 -47 35
-59 30 -50 42 29 38 43 -3 68 15 62 45 -7 36 -34 39 -77 7 -22 -16 -38 -33
-34 -37 4 -4 0 -4 -10 0 -21 8 -22 26 -1 65 21 42 10 69 -27 69 -18 0 -32 -6
-36 -16z"/>
<path d="M4153 1924 c-3 -9 2 -31 11 -50 9 -19 16 -39 16 -44 0 -16 -22 -11
-45 10 -42 40 -109 22 -92 -24 5 -12 20 -16 61 -16 30 0 57 -4 61 -9 3 -5 -14
-22 -37 -38 -46 -31 -55 -58 -25 -77 25 -16 49 3 67 52 17 50 37 54 45 10 10
-51 29 -72 59 -64 43 11 35 51 -14 76 -60 31 -53 50 18 50 32 0 61 3 64 6 11
10 -9 59 -25 62 -9 2 -33 -8 -54 -22 -45 -31 -69 -34 -58 -8 24 57 28 71 22
86 -8 21 -65 22 -74 0z"/>
<path d="M863 1471 c-43 -31 -73 -83 -73 -127 0 -39 36 -109 66 -129 24 -15
27 -15 51 0 l25 17 -37 34 c-34 31 -37 38 -32 75 6 48 28 74 72 89 53 18 115
-21 115 -72 0 -23 12 -23 41 1 l23 18 -21 39 c-44 87 -151 112 -230 55z"/>
<path d="M3875 1486 c-35 -16 -135 -119 -134 -138 0 -12 196 -179 218 -186 13
-4 80 77 102 123 10 22 19 54 19 70 0 89 -124 168 -205 131z m86 -72 c17 -8
37 -30 45 -50 13 -31 13 -39 -2 -70 -10 -20 -23 -38 -31 -41 -14 -6 -143 94
-143 111 1 6 9 20 18 32 31 37 67 43 113 18z"/>
<path d="M1097 1292 c-26 -27 -44 -52 -40 -57 5 -4 3 -5 -4 -2 -6 4 -34 -19
-66 -55 -51 -58 -54 -64 -40 -80 24 -27 42 -22 85 24 l38 41 23 -21 c13 -12
27 -20 30 -17 4 3 5 2 2 -2 -3 -3 5 -17 17 -30 l21 -23 -21 -23 c-12 -13 -19
-27 -15 -32 5 -4 3 -5 -3 -2 -6 4 -19 -2 -29 -13 -18 -20 -18 -21 5 -45 l24
-26 64 63 c35 35 82 85 104 111 l41 48 -24 25 -23 25 -37 -41 c-20 -22 -42
-40 -47 -40 -18 0 -82 61 -82 78 0 9 17 33 37 54 l37 38 -25 25 -25 25 -47
-48z"/>
<path d="M3618 1220 c-71 -47 -93 -118 -60 -192 72 -163 304 -107 304 74 0
123 -136 190 -244 118z m116 -44 c67 -28 87 -101 42 -153 -55 -64 -166 -13
-166 75 1 40 13 62 45 80 26 15 39 15 79 -2z"/>
<path d="M1310 1028 c-67 -105 -80 -146 -56 -182 28 -43 83 -78 132 -84 40 -4
49 -1 75 24 17 16 53 64 80 107 49 75 50 79 33 98 -9 10 -23 19 -30 19 -7 0
-36 -35 -64 -78 -27 -43 -59 -87 -70 -97 -20 -19 -22 -19 -56 0 -26 14 -34 24
-34 46 0 28 38 99 89 167 l25 34 -25 19 c-13 10 -27 19 -31 19 -5 0 -35 -42
-68 -92z"/>
<path d="M3335 1013 c-67 -35 -97 -81 -97 -149 0 -118 123 -189 231 -134 60
30 91 73 91 126 0 41 -22 104 -36 104 -17 0 -124 -73 -124 -84 0 -29 25 -36
55 -16 34 23 45 18 45 -19 0 -35 -37 -70 -82 -77 -94 -16 -152 148 -68 191 16
8 42 15 57 15 29 0 59 32 48 50 -10 15 -87 11 -120 -7z"/>
<path d="M1581 829 c-34 -71 -61 -133 -61 -139 0 -10 32 -30 48 -30 4 0 19 23
31 50 12 28 27 50 32 50 5 0 9 -17 9 -39 0 -74 11 -102 44 -116 17 -7 32 -12
34 -10 2 2 -2 31 -8 65 -6 34 -9 64 -7 66 3 3 17 7 33 10 68 11 99 102 50 148
-14 12 -52 34 -84 48 l-60 26 -61 -129z m141 34 c21 -18 24 -53 6 -71 -14 -14
-74 -16 -83 -3 -9 16 26 91 43 91 8 0 24 -7 34 -17z"/>
<path d="M3015 860 c-11 -5 -39 -14 -63 -20 -23 -6 -40 -15 -37 -20 4 -6 -1
-7 -11 -3 -14 5 -16 2 -11 -13 3 -10 23 -75 45 -144 36 -117 40 -125 62 -122
40 4 45 17 27 73 -9 28 -15 55 -12 59 3 4 25 13 49 19 37 9 43 14 39 31 -8 29
-18 32 -64 19 -34 -11 -42 -10 -50 2 -19 30 -9 47 34 62 34 11 42 18 42 38 0
26 -18 33 -50 19z"/>
<path d="M1935 823 c-62 -16 -114 -92 -115 -169 0 -77 70 -144 151 -144 30 0
38 4 43 23 9 35 8 37 -29 37 -20 0 -47 7 -60 16 -47 31 -42 124 9 159 30 22
86 19 112 -6 l22 -20 10 30 c8 24 7 32 -6 44 -34 31 -86 42 -137 30z"/>
<path d="M2121 698 c-7 -51 -15 -119 -18 -150 -5 -54 -4 -58 16 -59 11 -1 26
-2 33 -3 8 -1 17 23 23 59 l10 60 55 -3 c30 -2 59 -7 64 -12 4 -5 4 -33 -1
-64 -11 -60 -7 -66 42 -66 21 0 25 6 30 48 3 26 13 90 20 142 8 52 11 98 7
102 -4 3 -20 8 -37 10 -29 3 -30 2 -36 -50 -4 -29 -10 -56 -13 -59 -3 -4 -32
-2 -63 3 l-58 9 3 40 c2 22 4 49 5 60 2 16 -5 21 -34 23 l-36 3 -12 -93z"/>
<path d="M2674 782 c-62 -20 -104 -83 -104 -156 0 -50 3 -59 38 -94 67 -71
158 -78 230 -17 55 46 67 156 25 214 -37 50 -121 74 -189 53z m115 -77 c26
-23 31 -34 31 -72 0 -102 -119 -141 -165 -54 -19 38 -19 90 0 117 8 12 13 23
10 25 -2 2 18 5 45 7 39 2 53 -2 79 -23z"/>
</g>
</svg>
